<svg xmlns="http://www.w3.org/2000/svg" viewBox="0 0 25 25" width="25" height="25">
	<style>
		tspan { white-space:pre }
		.shp0 { opacity: 0.702;fill: #000000 } 
	</style>
	<g id="left">
		<g id="menu">
			<g id="icon">
				<path id="Forma 1" class="shp0" d="M22.93 3.43C22.87 3.37 22.79 3.33 22.71 3.32L18.05 2.93L17.97 2.27C17.95 2.1 17.79 1.98 17.62 2L13.3 2.53C13.28 2.53 13.26 2.53 13.24 2.53L7.31 2.03C7.13 2.01 6.98 2.14 6.96 2.31L6.88 3.33L2.28 3.89C2.11 3.92 1.98 4.07 2 4.24L4.35 22.57C4.36 22.65 4.34 22.73 4.38 22.81C4.43 22.92 4.54 23 4.67 23L20.13 23C20.3 23 20.45 22.86 20.45 22.69L20.45 22.29L21.06 22.34C21.23 22.35 21.38 22.22 21.4 22.06L23 3.65C23.01 3.57 22.98 3.49 22.93 3.43ZM4.35 17.63L2.67 4.47L4.35 4.26L4.35 17.63ZM7.57 2.67L10.32 2.9L7.52 3.25L7.57 2.67ZM17.38 2.65L17.54 3.91L7.2 3.91L17.38 2.65ZM20.8 21.7L20.45 21.67L20.45 12.63C20.45 12.46 20.3 12.32 20.13 12.32C19.96 12.32 19.81 12.46 19.81 12.63L19.81 22.38L4.98 22.38L4.98 4.53L19.81 4.53L19.81 11.19C19.81 11.36 19.96 11.5 20.13 11.5C20.3 11.5 20.45 11.36 20.45 11.19L20.45 4.22C20.45 4.05 20.3 3.91 20.13 3.91L18.18 3.91L18.13 3.56L22.34 3.91L20.8 21.7ZM18.45 5.56L16.77 5.56C16.66 5.56 16.57 5.61 16.51 5.7L15.79 6.75C15.03 6.21 14.09 5.89 13.07 5.89C12.9 5.89 12.76 6.03 12.76 6.2L12.76 10.49C12.76 10.66 12.9 10.8 13.07 10.8L17.44 10.8C17.62 10.8 17.76 10.66 17.76 10.49C17.76 9.17 17.19 7.98 16.28 7.14L16.94 6.18L18.45 6.18C18.62 6.18 18.76 6.04 18.76 5.87C18.76 5.7 18.62 5.56 18.45 5.56ZM17.11 10.18L13.39 10.18L13.39 6.52C14.15 6.58 14.86 6.85 15.44 7.26L15.16 7.68C15.07 7.81 15.1 7.98 15.22 8.08C15.36 8.2 15.58 8.17 15.69 8.02L15.93 7.67C16.6 8.32 17.04 9.2 17.11 10.18ZM18.45 15.78L15.6 15.78L15.1 15C15.91 14.17 16.41 13.04 16.41 11.81C16.41 11.64 16.27 11.5 16.1 11.5L12.04 11.5L12.04 7.52C12.04 7.35 11.9 7.21 11.73 7.21C9.14 7.21 7.04 9.27 7.04 11.81C7.04 14.34 9.14 16.4 11.73 16.4C12.82 16.4 13.82 16.03 14.62 15.42L15.16 16.26C15.21 16.35 15.32 16.4 15.42 16.4L18.45 16.4C18.62 16.4 18.76 16.26 18.76 16.09C18.76 15.92 18.62 15.78 18.45 15.78ZM14.01 13.29C13.92 13.15 13.72 13.1 13.58 13.19C13.43 13.28 13.38 13.47 13.48 13.62L14.29 14.89C13.59 15.45 12.7 15.79 11.73 15.79C9.49 15.79 7.67 14 7.67 11.81C7.67 9.72 9.32 8 11.41 7.84L11.41 11.81C11.41 11.98 11.55 12.12 11.73 12.12L15.77 12.12C15.7 13.01 15.33 13.82 14.75 14.45L14.01 13.29ZM9.04 17.43L6.35 17.43C6.18 17.43 6.03 17.57 6.03 17.74C6.03 17.91 6.18 18.05 6.35 18.05L9.04 18.05C9.21 18.05 9.35 17.91 9.35 17.74C9.35 17.57 9.21 17.43 9.04 17.43ZM13.07 17.43L10.38 17.43C10.21 17.43 10.07 17.57 10.07 17.74C10.07 17.91 10.21 18.05 10.38 18.05L13.07 18.05C13.25 18.05 13.39 17.91 13.39 17.74C13.39 17.57 13.25 17.43 13.07 17.43ZM10.72 19.08L6.35 19.08C6.18 19.08 6.03 19.22 6.03 19.39C6.03 19.56 6.18 19.7 6.35 19.7L10.72 19.7C10.89 19.7 11.03 19.56 11.03 19.39C11.03 19.22 10.89 19.08 10.72 19.08ZM13.07 19.08L12.06 19.08C11.89 19.08 11.75 19.22 11.75 19.39C11.75 19.56 11.89 19.7 12.06 19.7L13.07 19.7C13.25 19.7 13.39 19.56 13.39 19.39C13.39 19.22 13.25 19.08 13.07 19.08ZM7.69 20.73L6.35 20.73C6.18 20.73 6.03 20.87 6.03 21.04C6.03 21.21 6.18 21.35 6.35 21.35L7.69 21.35C7.87 21.35 8.01 21.21 8.01 21.04C8.01 20.87 7.87 20.73 7.69 20.73ZM13.07 20.73L9.04 20.73C8.86 20.73 8.72 20.87 8.72 21.04C8.72 21.21 8.86 21.35 9.04 21.35L13.07 21.35C13.25 21.35 13.39 21.21 13.39 21.04C13.39 20.87 13.25 20.73 13.07 20.73Z" />
			</g>
		</g>
	</g>
</svg>