<svg xmlns="http://www.w3.org/2000/svg" viewBox="0 0 26 20" width="26" height="20">
	<style>
		tspan { white-space:pre }
		.shp0 { fill: #fff } 
	</style>
	<g id="left">
		<g id="выход">
			<g id="Group 1">
				<path id="Shape 1" class="shp0" d="M1.9 4.83L1.9 16.17C1.9 17.73 3.16 19 4.7 19L13.73 19C15.26 19 16.52 17.73 16.52 16.17L16.52 14.33C16.52 14.02 16.27 13.77 15.97 13.77C15.66 13.77 15.41 14.02 15.41 14.33L15.41 16.17C15.41 17.11 14.65 17.88 13.72 17.88L4.7 17.88C3.77 17.88 3.01 17.11 3.01 16.17L3.01 4.83C3.01 3.89 3.77 3.12 4.7 3.12L13.73 3.12C14.66 3.12 15.42 3.89 15.42 4.83L15.42 6.67C15.42 6.98 15.66 7.23 15.97 7.23C16.28 7.23 16.52 6.98 16.52 6.67L16.52 4.83C16.52 3.27 15.27 2 13.73 2L4.7 2C3.16 2 1.9 3.27 1.9 4.83ZM19.25 14.72C19.36 14.83 19.49 14.89 19.64 14.89C19.78 14.89 19.92 14.83 20.03 14.72L23.81 10.89C24.02 10.67 24.02 10.32 23.81 10.1L20.03 6.27C19.81 6.05 19.47 6.05 19.25 6.27C19.04 6.49 19.04 6.84 19.25 7.06L22.09 9.94L11.74 9.94C11.43 9.94 11.19 10.19 11.19 10.5C11.19 10.81 11.43 11.06 11.74 11.06L22.08 11.06L19.25 13.94C19.03 14.15 19.03 14.51 19.25 14.72Z" />
			</g>
		</g>
	</g>
</svg>