<svg xmlns="http://www.w3.org/2000/svg" viewBox="0 0 24 21" width="24" height="21">
	<style>
		tspan { white-space:pre }
		.shp0 { opacity: 0.702;fill: #000000 } 
	</style>
	<g id="left">
		<g id="menu">
			<g id="icon">
				<path id="Forma 1" class="shp0" d="M22.69 4.42C22.69 4.42 22.69 4.42 22.69 4.42L19.89 4.42L19.89 2.32C19.89 2.14 19.75 2 19.58 2L3.86 2C2.83 2 2 2.86 2 3.92L2 17.08C2 18.14 2.83 19 3.86 19L21.14 19C22.17 19 23 18.14 23 17.08L23 4.74C23 4.56 22.86 4.42 22.69 4.42ZM3.86 18.37C3.17 18.37 2.62 17.8 2.61 17.09L2.61 3.93C2.62 3.22 3.17 2.65 3.86 2.64L19.28 2.64L19.28 17.08C19.28 17.56 19.45 18.02 19.76 18.37L3.86 18.37ZM22.37 17.08C22.37 17.79 21.82 18.36 21.14 18.37C20.46 18.38 19.91 17.83 19.89 17.13C19.89 17.12 19.89 17.1 19.89 17.09L19.89 5.06L22.37 5.06L22.37 17.08ZM6.77 3.93C6.64 3.93 6.55 4.04 6.54 4.16L6.54 5.9L5.2 4.01C5.13 3.91 4.99 3.89 4.89 3.96C4.83 4.01 4.8 4.08 4.8 4.16L4.8 6.61C4.8 6.74 4.9 6.85 5.02 6.85C5.03 6.85 5.03 6.85 5.04 6.85C5.16 6.85 5.26 6.74 5.26 6.62L5.26 4.86L6.58 6.74L6.6 6.77C6.64 6.82 6.7 6.85 6.77 6.85C6.89 6.85 6.99 6.75 6.99 6.62L6.99 4.16C6.99 4.03 6.89 3.93 6.77 3.93ZM9.29 6.38L8.16 6.38L8.16 5.6L9.12 5.6C9.25 5.58 9.33 5.46 9.32 5.33C9.3 5.23 9.22 5.15 9.12 5.13L8.16 5.13L8.16 4.36L9.29 4.36C9.41 4.35 9.51 4.25 9.51 4.12C9.51 3.99 9.41 3.89 9.29 3.89L7.93 3.89C7.81 3.89 7.71 3.99 7.71 4.12L7.71 6.61C7.71 6.74 7.81 6.85 7.93 6.85C7.93 6.85 7.93 6.85 7.93 6.85L9.29 6.85C9.41 6.83 9.5 6.71 9.48 6.58C9.47 6.48 9.39 6.4 9.29 6.38ZM13.62 3.94C13.5 3.89 13.37 3.95 13.32 4.06L12.5 6.02L11.98 4.72C11.94 4.64 11.86 4.58 11.76 4.58C11.67 4.58 11.59 4.64 11.55 4.72L11.02 6.02L10.21 4.06C10.14 3.95 10 3.92 9.9 3.99C9.82 4.04 9.78 4.14 9.8 4.24L11.01 6.7C11.02 6.72 11.03 6.73 11.03 6.74L11.03 6.77C11.03 6.77 11.03 6.77 11.06 6.77C11.07 6.78 11.08 6.79 11.1 6.79L11.13 6.79L11.23 6.79C11.24 6.79 11.25 6.79 11.26 6.79L11.29 6.77L11.32 6.77L11.34 6.74L11.34 6.7L11.88 5.39L12.42 6.7C12.42 6.71 12.42 6.73 12.42 6.74L12.42 6.77L12.45 6.77C12.46 6.78 12.47 6.79 12.48 6.79L12.51 6.79L12.61 6.79L12.64 6.79C12.64 6.79 12.67 6.79 12.68 6.77L12.71 6.77L12.71 6.74C12.72 6.73 12.72 6.72 12.73 6.7L13.73 4.24C13.78 4.12 13.73 3.99 13.62 3.94ZM16.58 5.59C16.48 5.44 16.34 5.32 16.17 5.24C15.99 5.16 15.8 5.09 15.61 5.06C15.43 5.03 15.25 4.97 15.1 4.87C15.05 4.84 15.01 4.81 14.99 4.76C14.96 4.73 14.95 4.69 14.96 4.64C14.96 4.53 15.02 4.44 15.11 4.38C15.25 4.28 15.41 4.23 15.57 4.24C15.82 4.23 16.05 4.33 16.23 4.5C16.32 4.57 16.45 4.55 16.51 4.46C16.51 4.45 16.52 4.45 16.52 4.44C16.58 4.34 16.56 4.21 16.46 4.14C16.21 3.92 15.9 3.81 15.57 3.81C15.32 3.8 15.07 3.88 14.86 4.03C14.66 4.17 14.54 4.4 14.53 4.65C14.53 4.77 14.56 4.89 14.63 4.99C14.72 5.14 14.85 5.25 15.01 5.32C15.18 5.4 15.35 5.45 15.54 5.49C15.73 5.52 15.93 5.58 16.1 5.68C16.15 5.72 16.19 5.76 16.22 5.81C16.25 5.85 16.26 5.9 16.26 5.94C16.25 6.07 16.19 6.18 16.08 6.25C15.93 6.35 15.76 6.41 15.57 6.4C15.28 6.39 15.01 6.27 14.79 6.08C14.7 6 14.57 6.02 14.49 6.11C14.42 6.2 14.43 6.34 14.52 6.42C14.82 6.67 15.18 6.82 15.57 6.85C15.84 6.85 16.11 6.77 16.33 6.61C16.54 6.46 16.67 6.21 16.68 5.95C16.68 5.82 16.65 5.7 16.58 5.59ZM16.89 7.86L4.53 7.86C4.36 7.86 4.22 8.01 4.22 8.18C4.22 8.35 4.36 8.5 4.53 8.5L16.89 8.5C17.05 8.5 17.19 8.35 17.19 8.18C17.19 8.01 17.05 7.86 16.89 7.86ZM15.52 10.42L4.53 10.42C4.36 10.42 4.22 10.57 4.22 10.74C4.22 10.91 4.36 11.06 4.53 11.06L15.52 11.06C15.69 11.06 15.83 10.91 15.83 10.74C15.83 10.57 15.69 10.42 15.52 10.42ZM15.52 12.06L4.53 12.06C4.36 12.06 4.22 12.2 4.22 12.37C4.22 12.55 4.36 12.69 4.53 12.69L15.52 12.69C15.69 12.69 15.83 12.55 15.83 12.37C15.83 12.2 15.69 12.06 15.52 12.06ZM15.52 13.69L4.53 13.69C4.36 13.69 4.22 13.83 4.22 14C4.22 14.18 4.36 14.32 4.53 14.32L15.52 14.32C15.69 14.32 15.83 14.18 15.83 14C15.83 13.83 15.69 13.69 15.52 13.69ZM15.52 15.32L4.53 15.32C4.36 15.32 4.22 15.46 4.22 15.64C4.22 15.81 4.36 15.95 4.53 15.95L15.52 15.95C15.69 15.95 15.83 15.81 15.83 15.64C15.83 15.46 15.69 15.32 15.52 15.32Z" />
			</g>
		</g>
	</g>
</svg>