<svg xmlns="http://www.w3.org/2000/svg" viewBox="0 0 22 20" width="22" height="20">
	<style>
		tspan { white-space:pre }
		.shp0 { fill: #f5f7fb } 
	</style>
	<g id="шапка">
		<path id="Forma 1" class="shp0" d="M19.72 17.39L15.28 12.94C16.42 11.63 17.05 9.98 17.05 8.27C17.05 4.26 13.67 1 9.52 1C5.37 1 2 4.26 2 8.27C2 12.27 5.37 15.53 9.52 15.53C11.08 15.53 12.56 15.08 13.83 14.22L18.3 18.71C18.49 18.9 18.74 19 19.01 19C19.26 19 19.51 18.91 19.69 18.74C20.08 18.37 20.09 17.77 19.72 17.39ZM9.52 2.9C12.59 2.9 15.08 5.31 15.08 8.27C15.08 11.23 12.59 13.64 9.52 13.64C6.46 13.64 3.96 11.23 3.96 8.27C3.96 5.31 6.46 2.9 9.52 2.9Z" />
	</g>
</svg>