<svg xmlns="http://www.w3.org/2000/svg" viewBox="0 0 25 24" width="25" height="24">
	<style>
		tspan { white-space:pre }
		.shp0 { fill: #6b5fa9 } 
	</style>
	<g id="left">
		<g id="menu">
			<g id="icon">
				<path id="Forma 1" class="shp0" d="M11.89 17.56C11.73 17.44 11.51 17.48 11.4 17.64L11.35 17.7C11.23 17.86 11.27 18.08 11.43 18.2C11.49 18.24 11.56 18.26 11.64 18.26C11.75 18.26 11.85 18.21 11.92 18.12L11.97 18.06C12.09 17.9 12.05 17.68 11.89 17.56ZM11.99 20.95L11.07 19.29L11.93 18.12C12.04 17.96 12.01 17.74 11.85 17.62C11.69 17.5 11.47 17.54 11.35 17.7L10.36 19.05C10.28 19.16 10.27 19.31 10.34 19.43L11.36 21.3L11.36 21.3C11.43 21.41 11.55 21.48 11.67 21.48C11.73 21.48 11.79 21.47 11.85 21.44C12.02 21.34 12.08 21.13 11.99 20.95ZM14.64 19.05L13.65 17.7C13.57 17.59 13.43 17.54 13.3 17.56C13.16 17.59 13.06 17.69 13.02 17.83C13 17.93 13.02 18.04 13.08 18.13L13.93 19.29L13.02 20.94C12.99 20.99 12.98 21.05 12.98 21.11C12.98 21.28 13.09 21.42 13.25 21.46C13.27 21.47 13.3 21.47 13.33 21.47C13.46 21.47 13.58 21.4 13.65 21.28L14.67 19.43C14.73 19.31 14.72 19.16 14.64 19.05ZM15.2 13.44C15.09 13.38 14.95 13.39 14.84 13.47C14.62 13.61 14.43 13.77 14.25 13.93C13.29 14.79 12.38 14.68 12.35 14.67C12.33 14.67 12.3 14.67 12.28 14.67C11.9 14.68 11.22 14.33 10.5 13.76C10.39 13.68 10.27 13.59 10.16 13.52C10.05 13.44 9.91 13.44 9.8 13.5C9.68 13.56 9.61 13.68 9.61 13.81L9.61 15.03C9.61 15.14 9.66 15.24 9.74 15.31C9.75 15.32 9.76 15.33 9.77 15.33L12.3 17.02C12.3 17.02 12.3 17.02 12.3 17.03L12.3 17.03C12.36 17.07 12.43 17.09 12.5 17.09C12.56 17.09 12.62 17.07 12.67 17.05C12.68 17.04 12.69 17.03 12.7 17.03C12.7 17.03 12.7 17.03 12.71 17.02C12.71 17.02 12.71 17.02 12.71 17.02L15.23 15.34C15.24 15.33 15.25 15.32 15.26 15.32C15.34 15.25 15.39 15.14 15.39 15.03L15.39 13.76C15.39 13.63 15.32 13.51 15.2 13.44ZM14.68 14.84L12.5 16.3L10.32 14.84L10.32 14.52C10.85 14.91 11.63 15.38 12.27 15.38C12.27 15.38 12.27 15.38 12.27 15.38C12.49 15.4 13.58 15.47 14.68 14.5L14.68 14.84L14.68 14.84ZM12.85 16.67C12.83 16.53 12.72 16.42 12.58 16.39C12.44 16.35 12.3 16.41 12.21 16.52L11.4 17.64C11.28 17.8 11.31 18.02 11.47 18.14C11.53 18.18 11.61 18.2 11.68 18.2C11.79 18.2 11.9 18.15 11.97 18.06L12.78 16.95C12.83 16.89 12.86 16.81 12.86 16.73C12.86 16.71 12.86 16.69 12.85 16.67ZM17.93 5.18C17.92 5.12 17.75 3.92 16.62 3.44C16.65 3.23 16.65 2.96 16.51 2.7C16.33 2.34 15.98 2.11 15.46 2.01C15.43 2 15.41 2 15.39 2L10.61 2C8.67 2 7.09 3.58 7.09 5.52L7.09 7.4C7.09 7.89 7.25 8.37 7.56 8.74C7.71 8.93 7.89 9.26 7.92 9.75C7.93 9.94 8.09 10.09 8.28 10.09C8.48 10.08 8.63 9.92 8.63 9.73L8.63 7.28C8.87 6.28 9.7 6.09 9.84 6.06L11.39 6.06C11.57 6.06 11.75 6.03 11.92 5.98C12.21 5.88 12.68 5.71 13.02 5.58C13.25 5.49 13.5 5.49 13.73 5.57L15.38 6.15C16.21 6.46 16.36 7.19 16.37 7.3L16.37 10.24C16.37 10.42 16.52 10.58 16.7 10.59C16.71 10.59 16.72 10.59 16.73 10.59C16.91 10.59 17.06 10.47 17.08 10.29C17.08 10.28 17.23 9.36 17.69 8.63C17.84 8.37 17.93 8.08 17.93 7.78L17.93 5.23C17.93 5.21 17.93 5.2 17.93 5.18ZM17.22 7.78C17.22 7.94 17.17 8.1 17.09 8.24L17.09 7.28C17.09 7.26 17.09 7.25 17.08 7.24C17.08 7.19 16.93 5.96 15.62 5.48C15.62 5.48 15.62 5.48 15.62 5.48L13.96 4.9C13.78 4.83 13.58 4.8 13.38 4.8C13.17 4.8 12.96 4.84 12.76 4.91C12.29 5.1 11.92 5.23 11.7 5.3C11.6 5.33 11.49 5.35 11.39 5.35L9.81 5.35C9.8 5.35 9.78 5.35 9.77 5.35C9.71 5.36 8.28 5.56 7.93 7.16C7.92 7.19 7.92 7.22 7.92 7.24L7.92 7.98C7.84 7.8 7.8 7.6 7.8 7.4L7.8 5.52C7.8 3.97 9.06 2.71 10.61 2.71L15.35 2.71C15.55 2.75 15.79 2.84 15.88 3.02C15.99 3.23 15.86 3.52 15.86 3.52C15.82 3.62 15.82 3.73 15.86 3.83C15.91 3.93 16 4 16.1 4.02C17.01 4.24 17.19 5.11 17.22 5.25L17.22 7.78L17.22 7.78ZM17.08 7.24C17.08 7.19 16.93 5.96 15.62 5.48C15.62 5.48 15.62 5.48 15.62 5.48L13.96 4.9C13.57 4.76 13.15 4.77 12.76 4.91C12.29 5.1 11.92 5.23 11.7 5.3C11.6 5.33 11.49 5.35 11.39 5.35L9.81 5.35C9.8 5.35 9.78 5.35 9.77 5.35C9.71 5.36 8.28 5.56 7.93 7.16C7.92 7.19 7.92 7.22 7.92 7.24L7.92 10.31C7.92 10.31 7.92 10.31 7.92 10.31C7.92 10.42 8 12.94 9.73 14.09L9.74 14.09C9.75 14.1 9.76 14.1 9.76 14.11C9.86 14.17 9.96 14.25 10.06 14.32C10.56 14.72 11.52 15.38 12.27 15.38C12.27 15.38 12.27 15.38 12.27 15.38C12.31 15.38 12.39 15.39 12.49 15.39C12.91 15.39 13.82 15.28 14.73 14.46C14.88 14.32 15.05 14.18 15.24 14.05L15.27 14.03C15.28 14.03 15.28 14.02 15.29 14.02C15.87 13.63 16.88 12.62 17.09 10.27C17.09 10.26 17.09 10.25 17.09 10.24L17.09 7.28C17.09 7.26 17.09 7.25 17.08 7.24ZM16.37 10.22C16.18 12.35 15.28 13.17 14.9 13.42C14.88 13.43 14.87 13.44 14.86 13.45L14.84 13.47C14.62 13.61 14.43 13.77 14.25 13.93C13.3 14.79 12.39 14.68 12.35 14.67C12.32 14.67 12.3 14.67 12.28 14.67C11.9 14.68 11.22 14.33 10.5 13.76C10.39 13.68 10.27 13.59 10.16 13.52L10.15 13.51C10.14 13.5 10.14 13.5 10.13 13.49C8.73 12.56 8.63 10.39 8.63 10.3L8.63 7.28C8.87 6.28 9.7 6.09 9.84 6.06L11.39 6.06C11.57 6.06 11.75 6.03 11.92 5.98C12.21 5.88 12.68 5.71 13.02 5.58C13.25 5.49 13.5 5.49 13.73 5.57L15.38 6.15C16.21 6.46 16.36 7.19 16.37 7.3L16.37 10.22L16.37 10.22ZM12.82 16.57C12.76 16.46 12.65 16.39 12.53 16.38C12.41 16.37 12.29 16.42 12.21 16.52L11.36 17.68C11.24 17.84 11.28 18.07 11.44 18.18C11.5 18.23 11.57 18.25 11.65 18.25C11.76 18.25 11.86 18.2 11.93 18.11L12.79 16.95C12.83 16.89 12.86 16.81 12.86 16.73C12.86 16.68 12.84 16.62 12.82 16.57ZM12.84 22.31C12.71 22.17 12.49 22.17 12.34 22.3L12.26 22.37C12.14 22.48 12.11 22.66 12.19 22.81L12.19 22.81C12.25 22.91 12.35 22.98 12.46 22.99C12.47 22.99 12.49 22.99 12.51 22.99C12.6 22.99 12.69 22.96 12.76 22.89L12.84 22.81C12.97 22.67 12.98 22.45 12.84 22.31ZM12.74 22.37L12.66 22.3C12.51 22.17 12.29 22.17 12.16 22.31C12.03 22.45 12.03 22.67 12.16 22.81L12.24 22.89C12.31 22.96 12.4 22.99 12.5 22.99C12.51 22.99 12.53 22.99 12.55 22.99C12.66 22.98 12.75 22.91 12.81 22.81L12.81 22.81C12.89 22.66 12.86 22.48 12.74 22.37ZM12.74 22.38L12.74 22.38C12.69 22.32 12.62 22.29 12.54 22.28C12.43 22.27 12.33 22.31 12.26 22.38L12.26 22.38C12.18 22.44 12.14 22.53 12.14 22.63C12.14 22.73 12.18 22.82 12.25 22.89L12.25 22.9C12.32 22.97 12.41 23 12.5 23C12.59 23 12.68 22.97 12.75 22.9L12.76 22.89C12.82 22.82 12.86 22.73 12.86 22.63C12.86 22.53 12.82 22.44 12.74 22.38ZM12.62 16.39C12.47 16.34 12.31 16.39 12.22 16.52C12.12 16.66 12.13 16.86 12.26 16.98C12.32 17.05 12.42 17.08 12.51 17.08C12.58 17.08 12.65 17.06 12.71 17.02C12.81 16.95 12.86 16.84 12.86 16.73L12.86 16.73C12.86 16.57 12.76 16.43 12.62 16.39ZM12.79 16.52L12.79 16.51C12.7 16.39 12.54 16.34 12.39 16.39C12.24 16.44 12.14 16.57 12.14 16.73L12.14 16.73C12.14 16.86 12.22 16.98 12.33 17.05C12.39 17.07 12.44 17.09 12.5 17.09C12.57 17.09 12.64 17.07 12.7 17.03C12.78 16.97 12.84 16.89 12.85 16.79C12.87 16.7 12.85 16.6 12.79 16.52ZM16.74 15.4C16.7 15.3 16.62 15.22 16.52 15.19L15.16 14.7C15.15 14.7 15.14 14.69 15.12 14.69C15.03 14.66 14.92 14.68 14.84 14.74L12.31 16.43C12.31 16.43 12.31 16.43 12.31 16.43L12.51 16.73L12.3 16.43C12.23 16.48 12.18 16.56 12.16 16.65C12.14 16.69 12.14 16.74 12.15 16.79C12.16 16.85 12.18 16.9 12.21 16.94L14.07 19.47C14.13 19.56 14.24 19.61 14.35 19.61C14.36 19.61 14.37 19.61 14.38 19.61C14.5 19.61 14.61 19.54 14.67 19.43L16.72 15.7C16.77 15.6 16.77 15.5 16.74 15.4ZM14.31 18.6L13.01 16.82L15.09 15.43L15.89 15.72L14.31 18.6ZM12.85 16.67C12.83 16.58 12.78 16.49 12.7 16.44L10.16 14.74C10.08 14.68 9.98 14.67 9.89 14.69C9.87 14.69 9.86 14.69 9.84 14.7L8.48 15.19C8.38 15.22 8.3 15.3 8.26 15.4C8.23 15.5 8.23 15.6 8.29 15.7L10.34 19.43C10.39 19.54 10.5 19.61 10.63 19.61C10.63 19.61 10.64 19.61 10.65 19.61C10.76 19.61 10.87 19.56 10.94 19.47L11.93 18.12C11.93 18.12 11.93 18.12 11.93 18.12L12.79 16.94C12.85 16.86 12.87 16.77 12.85 16.67ZM11.35 17.7C11.35 17.7 11.35 17.7 11.35 17.7L10.69 18.6L9.11 15.72L9.91 15.43L11.99 16.82L11.35 17.7ZM23.01 21.48L22.56 18.71C22.41 17.83 21.8 17.1 20.97 16.8L16.53 15.19C16.39 15.14 16.24 15.18 16.14 15.29C16.04 15.4 16.02 15.55 16.09 15.68L17.01 17.55L16.1 17.56C15.98 17.56 15.87 17.63 15.8 17.73C15.74 17.84 15.74 17.97 15.79 18.08L16.17 18.8L12.34 22.3C12.34 22.3 12.34 22.3 12.33 22.31L12.25 22.39C12.14 22.5 12.12 22.67 12.19 22.81L12.2 22.81C12.26 22.93 12.38 23 12.51 23L21.73 23C22.11 23 22.48 22.83 22.72 22.54C22.97 22.25 23.08 21.86 23.01 21.48ZM22.18 22.08C22.07 22.21 21.9 22.29 21.73 22.29L13.41 22.29L16.85 19.14C16.97 19.03 17 18.85 16.92 18.71L16.69 18.26L17.59 18.25C17.71 18.25 17.83 18.18 17.89 18.08C17.95 17.97 17.96 17.84 17.9 17.74L17.12 16.16L20.73 17.47C21.32 17.68 21.75 18.2 21.85 18.82L22.31 21.6C22.31 21.6 22.31 21.6 22.31 21.6C22.34 21.77 22.29 21.95 22.18 22.08ZM12.75 22.38L12.74 22.38C12.6 22.25 12.39 22.25 12.25 22.39L12.25 22.39C12.15 22.49 12.12 22.65 12.17 22.78C12.23 22.91 12.36 23 12.5 23L12.51 23C12.66 23 12.79 22.91 12.84 22.77C12.89 22.63 12.86 22.48 12.75 22.38ZM12.74 22.37C12.66 22.3 12.55 22.26 12.44 22.28C12.33 22.3 12.24 22.37 12.19 22.46L12.18 22.47C12.11 22.6 12.13 22.77 12.24 22.89L12.24 22.89C12.31 22.96 12.4 23 12.5 23C12.58 23 12.67 22.97 12.74 22.9L12.74 22.9C12.77 22.87 12.8 22.83 12.82 22.8C12.89 22.65 12.86 22.48 12.74 22.37ZM12.75 22.39L12.75 22.39C12.75 22.39 12.75 22.39 12.75 22.39L12.67 22.31C12.66 22.3 12.66 22.3 12.66 22.3L8.83 18.8L9.21 18.08C9.27 17.97 9.26 17.84 9.2 17.73C9.14 17.63 9.02 17.56 8.9 17.56L7.99 17.55L8.92 15.68C8.98 15.55 8.96 15.4 8.86 15.29C8.77 15.18 8.61 15.14 8.48 15.19L4.03 16.8C3.2 17.1 2.59 17.83 2.45 18.71L1.99 21.48C1.92 21.86 2.03 22.25 2.28 22.54C2.53 22.83 2.89 23 3.27 23L12.5 23C12.64 23 12.77 22.91 12.83 22.78C12.88 22.65 12.85 22.49 12.75 22.39ZM3.27 22.29C3.1 22.29 2.93 22.21 2.82 22.08C2.71 21.95 2.66 21.77 2.69 21.6L3.15 18.82C3.25 18.2 3.68 17.68 4.27 17.47L7.88 16.16L7.1 17.74C7.04 17.84 7.05 17.97 7.11 18.08C7.18 18.18 7.29 18.25 7.41 18.25L8.31 18.26L8.08 18.71C8 18.85 8.03 19.03 8.15 19.14L11.59 22.29L3.27 22.29ZM13.71 18C13.74 17.9 13.72 17.79 13.65 17.7L12.79 16.52C12.7 16.4 12.54 16.35 12.39 16.4C12.31 16.42 12.25 16.47 12.2 16.54L11.35 17.7C11.34 17.71 11.33 17.73 11.32 17.75C11.26 17.87 11.27 18.01 11.35 18.11L11.71 18.63L11.32 21.07C11.31 21.15 11.32 21.23 11.36 21.3L12.19 22.8C12.25 22.91 12.37 22.99 12.5 22.99C12.63 22.99 12.75 22.91 12.81 22.8L13.65 21.28C13.67 21.23 13.69 21.17 13.69 21.11L13.69 21.11C13.69 21.09 13.69 21.08 13.69 21.06L13.3 18.63L13.66 18.12C13.68 18.08 13.7 18.04 13.71 18ZM12.5 21.89L12.04 21.06L12.43 18.6C12.45 18.51 12.43 18.42 12.37 18.34L12.08 17.91L12.5 17.34L12.93 17.92L12.63 18.34C12.58 18.42 12.56 18.51 12.58 18.6L12.96 21.05L12.5 21.89Z" />
			</g>
		</g>
	</g>
</svg>