<svg xmlns="http://www.w3.org/2000/svg" viewBox="0 0 24 15" width="24" height="15">
	<style>
		tspan { white-space:pre }
		.shp0 { opacity: 0.702;fill: #000000 } 
	</style>
	<g id="left">
		<g id="menu">
			<g id="icon">
				<path id="Forma 1" class="shp0" d="M22.13 1L2.87 1C2.39 1 2 1.37 2 1.83L2 13.17C2 13.63 2.39 14 2.87 14L22.13 14C22.61 14 23 13.63 23 13.17L23 1.83C23 1.37 22.61 1 22.13 1ZM2.87 1.65L22.13 1.65C22.22 1.65 22.29 1.71 22.31 1.78L12.5 7.68L2.69 1.78C2.71 1.71 2.78 1.65 2.87 1.65ZM2.68 2.53L9.74 6.77L2.68 12.16L2.68 2.53ZM22.32 13.16C22.32 13.26 22.24 13.34 22.13 13.34L2.87 13.34C2.76 13.34 2.68 13.26 2.68 13.16L2.68 12.99L10.35 7.16L12.32 8.34C12.43 8.41 12.57 8.41 12.68 8.34L14.65 7.16L22.32 12.99L22.32 13.16ZM22.32 12.16L15.25 6.79L22.32 2.57L22.32 12.16Z" />
			</g>
		</g>
	</g>
</svg>