<svg xmlns="http://www.w3.org/2000/svg" viewBox="0 0 24 16" width="24" height="16">
	<style>
		tspan { white-space:pre }
		.shp0 { opacity: 0.702;fill: #000000 } 
	</style>
	<g id="left">
		<g id="menu">
			<g id="icon">
				<path id="Forma 1" class="shp0" d="M16.12 9.32L14.33 8.55C14.2 8.5 14.12 8.38 14.12 8.25L14.12 7.77C14.72 7.31 15.11 6.6 15.11 5.8L15.11 5.13C15.31 5.02 15.44 4.82 15.44 4.59L15.44 4.52C15.44 3.13 14.27 2 12.83 2L12.17 2C10.73 2 9.56 3.13 9.56 4.52L9.56 5.11C9.56 5.31 9.65 5.5 9.81 5.61C9.83 5.63 9.86 5.65 9.89 5.66L9.89 5.8C9.89 6.6 10.28 7.31 10.88 7.77L10.88 8.25C10.88 8.38 10.8 8.5 10.67 8.55L8.88 9.32C8.3 9.58 7.92 10.14 7.92 10.76L7.92 14.7C7.92 14.87 8.06 15 8.23 15C8.4 15 8.53 14.87 8.53 14.7L8.53 10.76C8.53 10.72 8.54 10.69 8.54 10.66L9.36 11.45C9.49 11.58 9.56 11.74 9.56 11.92L9.56 14.7C9.56 14.87 9.7 15 9.87 15C10.04 15 10.18 14.87 10.18 14.7L10.18 11.92C10.18 11.58 10.04 11.27 9.8 11.03L8.82 10.08C8.9 9.99 9.01 9.92 9.13 9.87L10.89 9.11L12.19 10.37L12.19 14.7C12.19 14.87 12.33 15 12.5 15C12.67 15 12.81 14.87 12.81 14.7L12.81 10.37L14.11 9.11L15.87 9.87C15.99 9.92 16.1 9.99 16.18 10.08L15.2 11.03C14.96 11.27 14.82 11.58 14.82 11.92L14.82 14.7C14.82 14.87 14.96 15 15.13 15C15.3 15 15.44 14.87 15.44 14.7L15.44 11.92C15.44 11.74 15.51 11.58 15.64 11.45L16.46 10.66C16.46 10.69 16.47 10.72 16.47 10.76L16.47 14.7C16.47 14.87 16.6 15 16.77 15C16.94 15 17.08 14.87 17.08 14.7L17.08 10.76C17.08 10.14 16.7 9.58 16.12 9.32ZM12.5 9.83L11.36 8.72C11.44 8.58 11.49 8.42 11.49 8.25L11.49 8.12C11.8 8.25 12.14 8.32 12.5 8.32C12.86 8.32 13.2 8.25 13.51 8.12L13.51 8.25C13.51 8.42 13.56 8.58 13.64 8.72L12.5 9.83ZM12.5 7.73C11.4 7.73 10.51 6.86 10.51 5.8L10.51 5.66C10.7 5.59 10.89 5.47 11.06 5.31C11.19 5.2 11.2 5.01 11.08 4.89C10.97 4.77 10.77 4.76 10.65 4.87C10.49 5.01 10.34 5.1 10.19 5.14C10.19 5.14 10.18 5.14 10.18 5.14C10.18 5.14 10.18 5.13 10.18 5.11L10.18 4.52C10.18 3.46 11.07 2.6 12.17 2.6L12.83 2.6C13.93 2.6 14.82 3.46 14.82 4.52L14.82 4.59C14.82 4.6 14.82 4.61 14.81 4.61C12.97 4.96 12.04 4.3 11.73 4C11.61 3.88 11.42 3.88 11.3 4C11.18 4.11 11.18 4.3 11.3 4.42C12.25 5.34 13.65 5.36 14.49 5.26L14.49 5.8C14.49 6.86 13.6 7.73 12.5 7.73ZM7.55 7.7L7.55 7.07C7.55 6.29 7.13 5.61 6.5 5.22C6.54 5.1 6.56 4.97 6.56 4.84C6.56 4.15 5.98 3.59 5.27 3.59C4.55 3.59 3.97 4.15 3.97 4.84C3.97 4.97 3.99 5.1 4.03 5.22C3.4 5.61 2.99 6.29 2.99 7.07L2.99 7.7C2.99 8.46 3.38 9.12 3.97 9.52L3.97 10.17C3.97 10.3 3.9 10.42 3.78 10.48L2.72 10.99C2.27 11.21 2 11.63 2 12.11L2 14.7C2 14.87 2.14 15 2.31 15C2.48 15 2.62 14.87 2.62 14.7L2.62 12.24L3.12 12.72C3.24 12.85 3.32 13.01 3.32 13.19L3.32 14.7C3.32 14.87 3.45 15 3.62 15C3.79 15 3.93 14.87 3.93 14.7L3.93 13.19C3.93 12.85 3.8 12.54 3.55 12.3L2.85 11.63C2.85 11.63 2.85 11.62 2.84 11.62C2.89 11.58 2.94 11.55 2.99 11.52L4.05 11.01C4.11 10.98 4.16 10.95 4.21 10.92L4.96 11.65L4.96 14.7C4.96 14.87 5.1 15 5.27 15C5.44 15 5.57 14.87 5.57 14.7L5.57 11.64L6.33 10.92C6.37 10.95 6.42 10.98 6.48 11.01L6.77 11.15C6.82 11.17 6.86 11.18 6.91 11.18C7.02 11.18 7.13 11.12 7.19 11.02C7.26 10.87 7.2 10.69 7.05 10.62L6.75 10.48C6.63 10.42 6.56 10.3 6.56 10.17L6.56 9.52C7.16 9.12 7.55 8.46 7.55 7.7ZM5.27 4.19C5.64 4.19 5.95 4.48 5.95 4.84C5.95 4.88 5.94 4.92 5.93 4.96C5.72 4.9 5.5 4.86 5.27 4.86C5.03 4.86 4.81 4.9 4.6 4.96C4.59 4.92 4.59 4.88 4.59 4.84C4.59 4.48 4.89 4.19 5.27 4.19ZM5.27 5.46C6.18 5.46 6.93 6.18 6.93 7.07L6.93 7.18C5.65 7.56 4.89 6.61 4.86 6.57C4.8 6.5 4.72 6.46 4.63 6.45C4.54 6.45 4.45 6.48 4.39 6.54C4.1 6.82 3.81 6.96 3.6 7.03C3.63 6.16 4.36 5.46 5.27 5.46ZM5.27 11.1L4.56 10.41C4.58 10.34 4.59 10.26 4.59 10.17L4.59 9.81C4.8 9.88 5.03 9.91 5.27 9.91C5.5 9.91 5.73 9.88 5.95 9.81L5.95 10.17C5.95 10.26 5.96 10.34 5.98 10.41L5.27 11.1ZM5.27 9.32C4.35 9.32 3.6 8.59 3.6 7.7L3.6 7.64C3.85 7.59 4.21 7.46 4.59 7.17C4.72 7.29 4.92 7.44 5.16 7.57C5.45 7.72 5.85 7.86 6.34 7.86C6.52 7.86 6.72 7.84 6.93 7.79C6.88 8.64 6.15 9.32 5.27 9.32ZM22.28 10.36L20.56 9.52C20.44 9.47 20.37 9.35 20.37 9.22L20.37 8.8C20.77 8.45 21.03 7.95 21.03 7.39L21.03 7.05C21.03 7.05 21.04 7.05 21.05 7.05C21.22 7.05 21.36 6.91 21.36 6.75L21.36 6.11C21.36 5.07 20.48 4.23 19.4 4.23L18.75 4.23C17.67 4.23 16.8 5.07 16.8 6.11L16.8 6.75C16.8 6.91 16.93 7.05 17.1 7.05C17.11 7.05 17.11 7.05 17.12 7.05L17.12 7.39C17.12 7.95 17.38 8.45 17.78 8.8L17.78 9.22C17.78 9.35 17.71 9.47 17.59 9.52C17.44 9.6 17.37 9.78 17.45 9.92C17.5 10.03 17.61 10.09 17.73 10.09C17.77 10.09 17.82 10.08 17.86 10.06C17.92 10.03 17.97 10 18.02 9.96L18.77 10.69L18.77 14.7C18.77 14.87 18.91 15 19.08 15C19.25 15 19.38 14.87 19.38 14.7L19.38 10.69L20.14 9.96C20.18 10 20.23 10.03 20.29 10.06L21.95 10.86L21.45 11.35C21.2 11.59 21.07 11.9 21.07 12.23L21.07 14.7C21.07 14.87 21.21 15 21.38 15C21.55 15 21.68 14.87 21.68 14.7L21.68 12.23C21.68 12.06 21.76 11.89 21.88 11.77L22.36 11.31C22.38 11.36 22.38 11.42 22.38 11.48L22.38 14.7C22.38 14.87 22.52 15 22.69 15C22.86 15 23 14.87 23 14.7L23 11.48C23 11 22.73 10.57 22.28 10.36ZM17.41 6.39L17.41 6.11L17.41 6.11C17.41 5.4 18.01 4.82 18.75 4.82L19.4 4.82C20.14 4.82 20.74 5.4 20.74 6.11L20.74 6.45C19.4 6.38 18.6 5.87 18.59 5.87C18.54 5.83 18.48 5.82 18.42 5.82C18.34 5.82 18.26 5.85 18.2 5.9C17.91 6.19 17.62 6.33 17.41 6.39ZM19.08 10.15L18.36 9.46C18.39 9.38 18.4 9.3 18.4 9.22L18.4 9.16C18.61 9.23 18.84 9.27 19.08 9.27C19.31 9.27 19.54 9.23 19.75 9.16L19.75 9.22C19.75 9.3 19.77 9.38 19.79 9.46L19.08 10.15ZM19.08 8.68C18.34 8.68 17.74 8.1 17.74 7.39L17.74 6.91L17.74 6.91C17.95 6.82 18.21 6.69 18.46 6.48C18.78 6.64 19.46 6.92 20.41 7.02L20.41 7.39C20.41 8.1 19.81 8.68 19.08 8.68Z" />
			</g>
		</g>
	</g>
</svg>