<svg xmlns="http://www.w3.org/2000/svg" viewBox="0 0 24 26" width="24" height="26">
	<style>
		tspan { white-space:pre }
		.shp0 { opacity: 0.702;fill: #000000 } 
	</style>
	<g id="left">
		<g id="menu">
			<g id="icon">
				<path id="Shape 1" class="shp0" d="M22.57 24.1L21.62 24.1L21.62 9.8C21.62 9.13 21.09 8.59 20.45 8.59L18.33 8.59C17.69 8.59 17.16 9.13 17.16 9.8L17.16 24.1L14.75 24.1L14.75 16.28C14.75 15.61 14.23 15.07 13.59 15.07L11.46 15.07C10.82 15.07 10.3 15.61 10.3 16.28L10.3 24.1L7.89 24.1L7.89 20.05C7.89 19.38 7.36 18.84 6.72 18.84L4.6 18.84C3.96 18.84 3.43 19.38 3.43 20.05L3.43 24.1L2.43 24.1C2.19 24.1 2 24.3 2 24.55C2 24.8 2.19 25 2.43 25L22.57 25C22.81 25 23 24.8 23 24.55C23 24.3 22.81 24.1 22.57 24.1ZM7.02 24.1L4.3 24.1L4.3 20.05C4.3 19.88 4.43 19.74 4.6 19.74L6.72 19.74C6.89 19.74 7.02 19.88 7.02 20.05L7.02 24.1L7.02 24.1ZM13.89 24.1L11.17 24.1L11.17 16.28C11.17 16.11 11.3 15.97 11.46 15.97L13.59 15.97C13.75 15.97 13.89 16.11 13.89 16.28L13.89 24.1ZM20.75 24.1L18.03 24.1L18.03 9.8C18.03 9.62 18.16 9.49 18.33 9.49L20.45 9.49C20.62 9.49 20.75 9.62 20.75 9.8L20.75 24.1L20.75 24.1ZM21.62 2.47C21.62 2.35 21.58 2.22 21.49 2.13C21.4 2.04 21.28 1.99 21.16 2C21.15 2 21.15 2 21.14 2L18.52 2C18.28 2 18.09 2.2 18.09 2.45C18.09 2.7 18.28 2.9 18.52 2.9L20.14 2.9L15.86 7.34L14.24 5.66C14.16 5.58 14.05 5.53 13.93 5.53C13.82 5.53 13.71 5.58 13.63 5.66L5.84 13.74C5.67 13.92 5.67 14.2 5.84 14.38C5.93 14.46 6.04 14.51 6.15 14.51C6.26 14.51 6.37 14.46 6.45 14.38L13.93 6.62L15.55 8.29C15.72 8.47 15.99 8.47 16.16 8.29L20.75 3.53L20.75 5.05C20.75 5.3 20.94 5.5 21.18 5.5C21.42 5.5 21.62 5.3 21.62 5.05L21.62 2.49C21.62 2.49 21.62 2.48 21.62 2.47ZM4.69 15.18C4.93 15.18 5.12 15.38 5.12 15.62C5.12 15.87 4.93 16.07 4.69 16.07C4.45 16.07 4.25 15.87 4.25 15.62C4.25 15.38 4.45 15.18 4.69 15.18Z" />
			</g>
		</g>
	</g>
</svg>